<?xml version="1.0" standalone="no"?>
<!DOCTYPE svg PUBLIC "-//W3C//DTD SVG 20010904//EN"
 "http://www.w3.org/TR/2001/REC-SVG-20010904/DTD/svg10.dtd">
<svg version="1.0" xmlns="http://www.w3.org/2000/svg"
 width="1228.000000pt" height="1280.000000pt" viewBox="0 0 1228.000000 1280.000000"
 preserveAspectRatio="xMidYMid meet">
<metadata>
Created by potrace 1.15, written by Peter Selinger 2001-2017
</metadata>
<g transform="translate(0.000000,1280.000000) scale(0.100000,-0.100000)"
fill="#000000" stroke="none">
<path d="M5954 12518 c-3 -5 -9 -6 -14 -3 -5 3 -11 1 -15 -5 -4 -6 -11 -8 -16
-5 -5 4 -9 3 -9 -2 0 -4 -20 -21 -44 -38 -38 -26 -82 -79 -79 -95 0 -3 -7 -16
-16 -30 -24 -36 -40 -89 -46 -151 -13 -135 -15 -173 -21 -309 -7 -155 -11
-231 -13 -241 -1 -7 -119 49 -126 61 -4 6 -15 10 -27 10 -11 0 -42 16 -69 36
-27 20 -49 32 -49 28 0 -4 -10 2 -23 14 -27 26 -191 112 -212 112 -8 0 -15 5
-15 11 0 5 -4 8 -9 5 -5 -4 -11 -2 -13 2 -4 9 -157 61 -202 68 -17 3 -40 7
-51 8 -11 2 -20 5 -20 6 0 3 -5 3 -135 16 -151 14 -326 10 -485 -12 -22 -3
-56 -7 -75 -9 -19 -1 -60 -8 -91 -14 -75 -16 -108 -22 -144 -27 -39 -5 -103
-18 -195 -40 -14 -3 -36 -7 -50 -10 -14 -2 -36 -6 -50 -9 -195 -41 -460 -90
-575 -105 -182 -25 -545 -31 -615 -11 -19 6 -73 17 -120 25 -88 15 -164 32
-190 43 -8 3 -18 7 -22 7 -3 1 -10 4 -14 9 -13 13 -23 7 -21 -13 1 -11 5 -20
9 -20 4 0 8 -7 8 -16 0 -9 8 -28 19 -42 19 -27 51 -96 50 -109 -1 -3 6 -10 15
-15 9 -5 16 -18 16 -28 0 -11 4 -20 8 -20 9 0 57 -91 54 -103 -1 -4 5 -10 13
-13 8 -4 15 -10 15 -15 0 -5 18 -39 40 -75 22 -36 40 -70 40 -74 0 -5 3 -10 8
-12 4 -1 25 -30 47 -63 22 -33 42 -62 45 -65 3 -3 24 -33 46 -67 23 -35 44
-60 48 -55 4 4 6 -6 4 -23 -2 -24 -8 -30 -28 -31 -14 -1 -42 -9 -62 -18 -21
-9 -43 -16 -51 -16 -7 0 -17 -4 -22 -9 -6 -4 -41 -20 -80 -35 -38 -16 -72 -32
-75 -37 -3 -5 -15 -10 -26 -12 -12 -1 -34 -11 -49 -21 -15 -10 -33 -19 -40
-20 -7 -1 -19 -6 -26 -12 -8 -5 -35 -21 -62 -34 -26 -13 -52 -29 -58 -37 -6
-7 -17 -13 -24 -13 -6 0 -31 -14 -53 -30 -23 -17 -42 -27 -42 -23 0 5 -4 3 -8
-2 -4 -6 -50 -41 -102 -77 -52 -36 -106 -76 -120 -88 -14 -12 -38 -31 -53 -43
-110 -84 -377 -360 -377 -389 0 -4 -6 -8 -12 -8 -7 0 -35 -33 -62 -74 -26 -41
-59 -85 -72 -97 -13 -12 -24 -28 -24 -34 0 -7 -9 -20 -20 -30 -11 -10 -20 -23
-20 -30 0 -7 -10 -24 -23 -38 -12 -15 -40 -61 -62 -104 -22 -43 -45 -84 -52
-91 -7 -7 -14 -18 -14 -23 -1 -5 -2 -14 -3 -20 0 -6 -8 -16 -16 -22 -8 -7 -16
-19 -18 -27 -2 -8 -14 -36 -28 -62 -13 -27 -24 -49 -23 -50 1 -2 -15 -37 -35
-80 -20 -42 -36 -78 -36 -81 0 -2 -8 -22 -17 -43 -18 -41 -23 -58 -27 -87 -1
-9 -8 -23 -14 -29 -7 -7 -12 -20 -12 -29 0 -10 -4 -20 -9 -23 -5 -3 -8 -16 -8
-29 0 -12 -10 -43 -21 -68 -11 -24 -24 -58 -27 -74 -4 -17 -14 -50 -22 -75 -8
-24 -16 -61 -18 -82 -2 -21 -10 -48 -16 -60 -12 -22 -26 -78 -32 -123 -6 -43
-20 -100 -27 -110 -5 -5 -11 -41 -14 -80 -3 -38 -13 -101 -22 -140 -22 -102
-39 -220 -50 -355 -3 -36 -10 -70 -15 -77 -6 -6 -12 -56 -15 -110 -6 -143 -8
-163 -14 -163 -3 0 -5 -72 -5 -160 0 -88 -2 -160 -5 -160 -3 0 -4 -32 -3 -71
2 -39 -1 -78 -7 -88 -6 -12 -5 -22 2 -29 8 -8 12 -102 15 -289 4 -301 10 -516
18 -603 3 -30 7 -98 10 -150 2 -52 8 -129 14 -170 6 -41 12 -109 15 -150 2
-41 7 -82 10 -91 4 -8 8 -40 10 -70 2 -29 6 -70 9 -89 3 -19 8 -60 11 -90 4
-30 11 -77 16 -105 5 -27 10 -66 11 -85 1 -19 8 -62 16 -95 8 -33 17 -82 19
-109 3 -27 8 -54 12 -60 3 -6 8 -33 10 -61 2 -27 10 -70 19 -95 8 -25 16 -65
19 -89 2 -24 8 -49 13 -55 5 -6 12 -38 15 -71 4 -32 10 -62 15 -65 4 -3 7 -16
7 -30 0 -14 5 -35 12 -46 6 -12 8 -24 4 -28 -3 -4 -1 -10 5 -14 7 -4 13 -29
14 -55 2 -26 6 -47 11 -47 4 0 8 -16 8 -35 0 -19 5 -35 11 -35 6 0 9 -7 6 -15
-4 -8 -2 -17 2 -19 5 -3 14 -33 20 -66 7 -33 16 -60 22 -60 5 0 9 -14 9 -30 0
-17 6 -43 14 -58 7 -15 16 -44 20 -64 4 -21 11 -38 15 -38 5 0 11 -15 14 -33
3 -17 10 -45 17 -62 6 -16 11 -32 12 -35 0 -3 7 -21 15 -40 8 -19 17 -48 20
-65 3 -16 10 -33 16 -37 7 -4 8 -8 4 -8 -4 0 -2 -10 5 -22 7 -13 11 -27 10
-32 -2 -5 1 -12 5 -15 9 -6 45 -94 49 -119 1 -7 11 -30 22 -51 12 -22 19 -41
16 -43 -2 -3 5 -13 16 -23 11 -10 20 -29 20 -42 0 -13 7 -35 16 -48 9 -14 13
-25 9 -25 -3 0 1 -7 9 -16 14 -14 21 -35 17 -56 0 -5 3 -8 9 -8 6 0 9 -3 8 -7
-2 -11 23 -65 40 -85 12 -14 18 -32 21 -60 1 -4 7 -13 15 -20 7 -8 31 -47 52
-88 21 -41 49 -93 63 -115 14 -22 26 -42 26 -45 2 -14 81 -147 97 -163 10 -10
16 -22 13 -28 -4 -5 -2 -9 4 -9 5 0 20 -21 33 -46 12 -26 28 -49 35 -51 7 -3
13 -11 13 -19 0 -12 11 -29 45 -68 6 -6 17 -24 25 -41 8 -16 27 -42 42 -56 15
-15 24 -30 21 -33 -4 -3 -1 -6 5 -6 7 0 12 -5 12 -10 0 -6 11 -23 25 -38 14
-15 25 -31 25 -37 0 -5 19 -31 43 -56 53 -58 77 -88 77 -95 0 -3 16 -21 35
-40 20 -19 32 -34 29 -34 -4 0 5 -10 20 -21 15 -12 25 -23 22 -26 -2 -2 27
-36 65 -74 39 -38 67 -69 64 -69 -7 0 12 -18 89 -88 20 -18 36 -36 36 -41 0
-4 11 -14 25 -21 14 -7 25 -19 25 -27 0 -7 5 -13 10 -13 6 0 39 -26 73 -58 87
-78 110 -98 204 -171 46 -35 83 -68 83 -73 0 -4 7 -8 15 -8 9 0 26 -10 39 -22
12 -13 34 -29 49 -37 15 -8 27 -18 27 -23 0 -4 5 -8 12 -8 6 0 20 -7 30 -17
20 -18 51 -37 88 -53 13 -6 27 -14 30 -18 8 -11 179 -115 225 -138 22 -10 42
-22 45 -25 3 -3 55 -30 115 -58 61 -29 126 -61 146 -72 20 -10 45 -19 56 -19
10 0 28 -7 40 -15 12 -8 29 -16 40 -18 10 -2 36 -12 58 -22 54 -24 202 -75
217 -75 7 0 26 -7 42 -15 16 -9 36 -13 43 -11 7 3 13 1 13 -5 0 -6 4 -8 9 -5
5 4 36 -2 70 -13 33 -10 63 -16 66 -13 3 3 5 1 5 -5 0 -5 15 -10 33 -11 17 0
43 -3 57 -7 14 -3 30 -7 35 -8 6 -2 15 -5 20 -9 32 -19 271 -39 522 -42 57 0
103 -4 103 -8 0 -9 83 -2 155 15 33 7 77 12 98 11 20 -1 37 2 37 7 0 4 6 6 14
3 8 -3 17 0 21 5 3 6 11 9 16 5 5 -3 26 0 47 7 20 7 39 14 42 14 44 9 77 19
88 27 6 6 12 8 12 5 0 -3 28 8 61 24 34 17 68 28 75 25 7 -3 17 2 22 10 5 9
11 15 13 14 9 -4 65 14 84 26 11 7 46 20 79 29 32 9 82 28 112 41 30 13 54 21
54 19 0 -3 8 -1 18 4 11 6 30 13 43 16 176 40 207 43 253 25 13 -5 26 -6 29
-4 3 3 42 -14 88 -36 90 -45 160 -70 197 -70 15 0 21 -4 16 -12 -4 -6 -3 -9 2
-6 5 3 34 2 64 -3 30 -5 82 -11 115 -14 33 -4 76 -9 95 -12 19 -2 55 -7 80 -9
64 -7 600 -6 630 1 14 3 39 7 55 10 83 11 131 19 145 22 8 2 29 6 45 8 25 3
65 13 200 49 6 2 24 6 40 11 17 4 36 12 43 18 6 5 12 6 12 1 0 -4 5 -3 12 4 7
7 22 12 34 12 13 0 25 4 28 9 4 5 24 12 46 16 22 4 40 10 40 15 0 4 20 13 45
19 25 6 45 16 45 21 0 6 6 10 14 10 7 0 30 7 50 15 20 8 39 16 43 16 5 1 21
10 36 21 15 11 34 21 42 22 9 1 21 8 27 14 7 7 18 12 26 12 7 0 28 11 45 24
18 13 48 31 67 40 49 23 94 50 98 58 2 5 9 8 16 8 7 0 21 9 31 20 10 11 24 20
32 20 7 0 16 7 19 15 4 8 10 12 15 9 5 -3 20 6 34 20 14 14 25 23 25 20 0 -3
19 10 43 29 23 19 62 47 87 63 25 16 50 33 56 39 6 5 28 24 49 40 21 17 55 46
76 65 50 46 67 60 74 60 2 0 28 23 56 50 28 28 54 50 59 50 4 0 18 16 31 35
13 19 28 35 32 35 10 0 307 296 307 306 0 4 8 14 18 23 9 9 44 48 77 86 33 39
64 75 70 81 5 6 24 28 40 49 17 21 37 46 45 55 8 8 42 49 74 90 33 41 63 77
66 80 4 3 15 19 25 37 10 18 23 29 28 26 6 -3 7 -1 3 5 -3 6 2 19 12 29 10 10
33 39 50 65 18 25 38 53 45 60 8 7 20 24 27 38 7 13 17 29 22 34 4 6 17 22 28
35 11 13 20 30 20 38 0 7 4 13 8 13 5 0 24 24 42 52 76 120 106 164 123 180 9
10 17 25 17 33 0 8 4 15 9 15 5 0 14 15 21 33 7 17 21 41 31 52 20 23 100 153
126 205 10 19 24 41 31 48 6 7 12 19 12 26 0 7 9 21 20 31 11 10 18 20 16 23
-3 2 3 12 12 22 10 10 32 48 51 84 18 36 40 71 47 77 8 6 14 19 14 28 0 9 8
28 17 41 10 14 27 43 39 65 64 125 87 166 94 170 5 3 11 19 15 35 4 17 10 30
14 30 8 0 71 122 71 139 0 6 5 11 11 11 5 0 8 4 4 9 -3 5 -1 12 5 16 5 3 10
14 10 24 0 9 9 27 20 39 11 12 20 30 20 41 0 11 6 26 14 34 16 16 76 138 76
154 0 6 6 16 14 22 8 7 18 25 21 41 4 16 15 47 26 69 10 22 19 47 19 54 0 8 6
17 13 20 7 2 13 18 15 33 1 16 10 40 20 54 11 14 22 42 26 62 4 21 13 43 20
50 7 7 16 26 20 43 4 16 16 47 26 70 10 22 21 56 25 75 4 19 14 47 21 62 8 16
12 28 10 28 -3 0 -1 12 5 28 32 78 49 128 49 142 0 8 7 29 16 45 9 17 18 48
20 69 3 22 12 56 20 75 9 20 17 45 20 56 13 64 17 81 24 90 4 6 10 28 14 50 4
22 9 47 10 55 12 64 20 97 27 112 5 10 12 39 15 65 11 80 8 66 39 198 13 57
22 111 31 200 7 72 9 80 17 86 8 6 16 72 22 179 2 30 6 93 9 140 5 77 10 196
20 455 1 49 0 104 -4 122 -5 22 -4 31 3 26 7 -4 8 2 3 18 -4 13 -9 35 -11 47
-2 13 -6 26 -9 29 -3 3 -1 13 4 23 5 10 7 20 4 22 -2 3 -7 48 -9 99 -2 52 -6
105 -10 119 -3 14 -7 59 -10 100 -2 41 -8 93 -13 115 -5 22 -8 50 -7 63 1 12
-2 22 -6 22 -5 0 -6 6 -3 13 2 7 -2 42 -10 77 -8 35 -13 67 -11 71 3 3 -2 20
-10 36 -8 16 -16 54 -19 85 -2 30 -9 65 -15 76 -6 11 -13 36 -15 56 -3 19 -11
54 -17 78 -7 24 -13 45 -13 48 -1 3 -5 11 -9 18 -5 6 -5 17 -2 22 3 6 2 10 -4
10 -8 0 -27 75 -23 93 1 4 -2 7 -7 7 -5 0 -12 17 -15 38 -4 20 -18 64 -31 97
-24 61 -31 82 -34 100 -1 6 -8 19 -15 30 -7 11 -17 35 -20 52 -4 17 -14 37
-22 43 -7 7 -11 16 -8 22 3 5 1 14 -4 21 -5 7 -13 23 -17 37 -4 14 -17 38 -29
55 -11 16 -19 37 -18 46 2 9 -4 19 -13 23 -9 3 -13 10 -10 16 3 5 1 10 -5 10
-6 0 -9 3 -7 8 3 4 -6 25 -19 47 -13 22 -29 51 -36 65 -7 14 -15 27 -19 30 -6
5 -20 41 -20 50 0 3 -8 14 -17 25 -9 11 -23 30 -29 43 -7 12 -19 32 -25 44 -7
13 -39 59 -70 104 -32 44 -58 86 -58 92 0 7 -4 12 -9 12 -5 0 -22 20 -38 45
-15 25 -31 45 -35 45 -5 0 -8 6 -8 13 0 7 -12 22 -27 34 -16 11 -35 33 -43 49
-22 43 -251 280 -351 364 -30 25 -74 63 -99 86 -62 57 -175 142 -205 156 -13
6 -22 16 -18 22 3 6 3 8 -2 4 -6 -6 -132 72 -178 111 -10 8 -24 16 -32 17 -8
1 -21 9 -29 16 -13 13 -250 133 -333 169 -18 8 -33 17 -33 21 0 5 -8 8 -18 8
-10 0 -35 9 -57 20 -22 11 -47 20 -57 20 -9 0 -19 4 -22 9 -4 5 -36 19 -73 31
-37 12 -79 28 -95 36 -15 8 -38 14 -52 14 -14 0 -27 4 -30 8 -3 5 -40 17 -83
27 -43 10 -82 22 -88 26 -5 5 -23 9 -40 9 -18 0 -35 3 -39 7 -3 4 -14 8 -24 9
-9 1 -28 5 -42 9 -48 13 -115 26 -155 30 -22 2 -40 4 -40 5 0 6 -175 39 -235
44 -36 4 -85 9 -110 11 -337 32 -859 37 -1115 10 -22 -3 -60 -7 -85 -9 -137
-13 -170 -17 -220 -25 -30 -5 -62 -10 -70 -10 -8 -1 -44 -6 -80 -12 -36 -6
-83 -12 -105 -13 -22 -1 -45 -4 -50 -8 -13 -7 -87 -22 -99 -19 -4 1 -23 -3
-42 -9 -18 -6 -46 -13 -61 -15 -16 -2 -50 -9 -78 -15 -27 -6 -62 -13 -77 -15
-15 -1 -51 -10 -80 -18 -29 -9 -81 -22 -116 -30 -57 -14 -63 -13 -71 2 -6 12
-8 506 -1 506 0 0 3 56 5 125 3 69 7 170 11 225 3 55 6 129 7 165 1 36 5 70 8
75 8 13 3 202 -5 235 -4 14 -8 30 -10 35 -11 46 -33 95 -55 123 -57 73 -108
115 -128 108 -7 -3 -13 -1 -13 3 0 11 -80 19 -86 9z"/>
</g>
</svg>
