<svg width="150" height="149" viewBox="0 0 150 149" fill="none" xmlns="http://www.w3.org/2000/svg">
<path d="M5.24576 63.3042C-5.25502 44.2082 0.00927035 31.592 21.0386 25.4555C42.0679 19.319 57.1997 20.3942 66.4335 28.6812C75.6672 36.9682 92.6924 42.1011 117.51 44.08C142.327 46.0589 152.927 60.8406 149.31 88.425C145.692 116.009 130.445 130.503 103.57 131.906C76.6946 133.309 56.2134 127 42.1268 112.979C28.0402 98.9586 15.7466 82.4 5.24576 63.3042Z" fill="#E9E9E9"/>
<path d="M132.387 122.054C130.451 143.761 119.045 151.296 98.1679 144.659C77.2909 138.023 65.3316 128.69 62.2899 116.662C59.2482 104.633 47.9802 90.8768 28.4857 75.3919C8.99133 59.9069 8.4383 41.726 26.8266 20.849C45.215 -0.0280286 65.9537 -3.55361 89.0429 10.2722C112.132 24.098 125.612 40.7582 129.483 60.2526C133.355 79.747 134.322 100.347 132.387 122.054Z" stroke="url(#paint0_linear_362_218)" stroke-width="4"/>
<defs>
<linearGradient id="paint0_linear_362_218" x1="73.3963" y1="2.00977" x2="73.3963" y2="146.99" gradientUnits="userSpaceOnUse">
<stop stop-color="#EFEF76"/>
<stop offset="1" stop-color="#C2E9A3"/>
</linearGradient>
</defs>
</svg>
