<?xml version="1.0" standalone="no"?>
<!DOCTYPE svg PUBLIC "-//W3C//DTD SVG 20010904//EN"
 "http://www.w3.org/TR/2001/REC-SVG-20010904/DTD/svg10.dtd">
<svg version="1.0" xmlns="http://www.w3.org/2000/svg"
 width="1280.000000pt" height="1280.000000pt" viewBox="0 0 1280.000000 1280.000000"
 preserveAspectRatio="xMidYMid meet">
<metadata>
Created by potrace 1.15, written by Peter Selinger 2001-2017
</metadata>
<g transform="translate(0.000000,1280.000000) scale(0.100000,-0.100000)"
fill="#000000" stroke="none">
<path d="M6265 12474 c-72 -85 -160 -189 -198 -231 -37 -42 -102 -119 -145
-170 -42 -52 -99 -121 -127 -153 -195 -226 -236 -275 -282 -331 -29 -35 -73
-86 -99 -114 -25 -27 -72 -81 -103 -120 -67 -83 -202 -243 -258 -303 l-40 -44
-134 40 c-162 49 -398 119 -694 207 -121 36 -227 69 -235 74 -8 4 -58 21 -110
36 -52 15 -266 79 -475 141 -209 63 -385 114 -392 114 -7 0 -13 -6 -13 -12 -1
-34 -280 -2100 -285 -2106 -2 -2 -156 -46 -360 -102 -60 -17 -126 -37 -145
-45 -19 -7 -120 -37 -225 -66 -478 -131 -837 -232 -920 -258 -49 -16 -160 -48
-245 -72 -85 -23 -157 -44 -159 -45 -4 -3 64 -153 159 -349 38 -77 91 -189
118 -250 111 -244 172 -376 235 -505 36 -74 100 -211 142 -305 42 -93 110
-237 150 -320 39 -82 78 -165 85 -183 15 -39 21 -30 -115 -180 -49 -54 -121
-136 -160 -182 -38 -46 -89 -103 -113 -128 -24 -24 -68 -74 -99 -110 -31 -37
-118 -137 -193 -222 -448 -505 -710 -806 -710 -816 0 -7 75 -59 168 -117 92
-58 235 -148 317 -201 83 -53 213 -136 290 -183 77 -48 151 -95 165 -105 14
-11 108 -70 210 -133 102 -62 239 -149 305 -192 65 -43 167 -106 225 -141 58
-35 109 -67 113 -71 7 -7 -65 -494 -198 -1341 -77 -498 -118 -780 -113 -785 3
-3 483 0 1067 6 1025 10 1063 10 1076 -8 14 -18 42 -82 215 -478 51 -115 116
-260 146 -322 30 -62 54 -114 54 -117 0 -9 211 -489 251 -571 21 -44 73 -159
115 -255 41 -96 79 -179 83 -183 5 -5 48 17 97 49 119 76 364 234 389 251 48
33 309 206 410 272 61 39 148 97 195 128 107 71 359 235 380 248 9 6 85 56
169 112 85 57 159 100 165 96 60 -36 271 -177 288 -193 12 -11 25 -20 30 -20
7 0 239 -150 403 -260 39 -26 178 -118 310 -204 132 -86 251 -165 265 -175 22
-15 141 -93 414 -269 37 -24 72 -40 76 -35 4 4 40 82 79 173 40 91 92 206 116
255 24 50 63 137 88 195 25 58 70 162 101 231 31 70 56 130 56 134 0 3 31 72
70 151 38 80 70 147 70 150 0 4 102 238 211 484 33 74 66 143 74 153 13 18 53
18 1076 8 584 -6 1064 -9 1067 -7 5 5 -142 999 -163 1101 -8 39 -31 178 -50
310 -20 132 -52 346 -71 475 -34 226 -35 235 -17 248 10 7 66 42 125 77 58 36
156 97 216 137 61 40 147 96 193 123 127 77 297 184 391 246 46 31 125 80 174
109 49 29 145 90 214 135 69 45 195 125 281 179 211 131 196 118 177 148 -16
24 -103 124 -405 464 -78 89 -160 182 -180 207 -21 25 -90 103 -153 174 -64
70 -126 142 -138 158 -13 17 -49 57 -80 90 -65 68 -179 197 -234 265 -20 25
-72 83 -117 130 -44 47 -80 94 -81 104 0 10 38 96 84 190 47 94 102 212 124
261 67 152 170 374 232 500 32 66 95 201 140 300 45 99 108 234 140 300 94
191 179 379 174 386 -2 3 -41 16 -86 29 -46 12 -128 36 -183 52 -228 67 -1107
315 -1235 348 -25 7 -49 15 -55 19 -5 4 -64 23 -130 41 -207 57 -358 99 -361
102 -1 2 -18 127 -38 278 -20 151 -41 293 -46 315 -5 22 -52 373 -106 780 -53
407 -98 742 -100 744 -4 5 -82 -16 -289 -79 -171 -52 -391 -118 -570 -170 -60
-18 -114 -36 -120 -40 -5 -4 -53 -20 -105 -35 -52 -15 -144 -42 -205 -60 -60
-19 -256 -77 -434 -130 l-324 -97 -40 44 c-48 51 -203 232 -269 315 -26 32
-70 83 -98 113 -29 30 -73 81 -98 114 -26 32 -90 108 -142 168 -104 120 -149
173 -273 322 -45 54 -109 129 -142 167 -33 37 -118 137 -190 223 -71 85 -135
156 -140 156 -6 0 -69 -70 -140 -156z"/>
</g>
</svg>
